<svg width="188" height="194" viewBox="0 0 188 194" fill="none" xmlns="http://www.w3.org/2000/svg">
<path d="M164.432 10.0775C170.532 21.701 155.282 47.1005 159.095 76.0875C162.907 105.075 185.477 137.506 179.53 158.457C173.582 179.264 139.117 188.448 105.262 187.731C71.56 186.87 38.7725 176.107 21.235 155.3C3.85001 134.349 2.02 103.496 8.12 78.24C14.22 53.1275 28.4025 33.6115 45.7875 22.1315C63.1725 10.6515 83.9125 7.064 107.702 4.0505C131.492 1.037 158.485 -1.4025 164.432 10.0775Z" fill="#E3F3FD"/>
<g filter="url(#filter0_i_1_45)">
<path d="M50.836 86.776C50.804 86.792 50.772 86.8 50.74 86.8C50.708 86.8 50.644 86.8 50.548 86.8C50.324 86.8 50.06 86.76 49.756 86.68C49.468 86.616 49.18 86.528 48.892 86.416C48.62 86.32 48.38 86.208 48.172 86.08C47.98 85.952 47.86 85.84 47.812 85.744C47.796 85.52 47.788 85.288 47.788 85.048C47.788 84.808 47.788 84.576 47.788 84.352C47.788 82.56 47.916 80.688 48.172 78.736C48.444 76.784 48.884 74.672 49.492 72.4C49.556 72.176 49.62 71.896 49.684 71.56C49.764 71.208 49.844 70.832 49.924 70.432C49.54 70.736 49.084 71.224 48.556 71.896C48.028 72.552 47.468 73.336 46.876 74.248C46.3 75.144 45.716 76.136 45.124 77.224C44.548 78.296 44.02 79.392 43.54 80.512C43.06 81.616 42.644 82.712 42.292 83.8C41.956 84.888 41.748 85.896 41.668 86.824C40.9 86.6 40.364 86.376 40.06 86.152C39.772 85.928 39.628 85.656 39.628 85.336C39.628 85.048 39.716 84.64 39.892 84.112C40.068 83.584 40.316 82.96 40.636 82.24C40.956 81.52 41.348 80.72 41.812 79.84C42.276 78.944 42.788 77.984 43.348 76.96C43.988 75.792 44.612 74.696 45.22 73.672C45.844 72.648 46.452 71.72 47.044 70.888C47.636 70.056 48.212 69.336 48.772 68.728C49.348 68.12 49.916 67.656 50.476 67.336C50.7 67.336 50.996 67.392 51.364 67.504C51.748 67.616 52.116 67.752 52.468 67.912C52.836 68.072 53.156 68.24 53.428 68.416C53.716 68.576 53.876 68.712 53.908 68.824C53.684 69.272 53.42 69.944 53.116 70.84C52.812 71.736 52.5 72.752 52.18 73.888C51.876 75.024 51.58 76.232 51.292 77.512C51.02 78.776 50.804 79.992 50.644 81.16C51.012 80.28 51.436 79.368 51.916 78.424C52.412 77.464 52.932 76.52 53.476 75.592C54.02 74.648 54.572 73.736 55.132 72.856C55.708 71.976 56.268 71.176 56.812 70.456C57.356 69.72 57.86 69.08 58.324 68.536C58.804 67.992 59.228 67.592 59.596 67.336C59.82 67.336 60.116 67.392 60.484 67.504C60.868 67.616 61.236 67.752 61.588 67.912C61.956 68.072 62.276 68.24 62.548 68.416C62.836 68.576 62.996 68.712 63.028 68.824C62.516 69.736 62.068 70.848 61.684 72.16C61.3 73.472 60.972 74.848 60.7 76.288C60.444 77.728 60.244 79.16 60.1 80.584C59.972 81.992 59.908 83.256 59.908 84.376C59.908 84.744 59.908 85.128 59.908 85.528C59.908 85.928 59.924 86.344 59.956 86.776C59.732 86.776 59.46 86.744 59.14 86.68C58.836 86.632 58.532 86.56 58.228 86.464C57.94 86.368 57.676 86.256 57.436 86.128C57.196 86.016 57.028 85.888 56.932 85.744C56.916 85.52 56.908 85.288 56.908 85.048C56.908 84.808 56.908 84.576 56.908 84.352C56.908 82.56 57.036 80.688 57.292 78.736C57.564 76.784 58.004 74.672 58.612 72.4C58.676 72.176 58.748 71.872 58.828 71.488C58.908 71.104 58.988 70.704 59.068 70.288C58.62 70.512 58.108 70.944 57.532 71.584C56.972 72.208 56.396 72.976 55.804 73.888C55.228 74.784 54.652 75.784 54.076 76.888C53.516 77.992 53.004 79.12 52.54 80.272C52.092 81.408 51.708 82.544 51.388 83.68C51.084 84.8 50.9 85.832 50.836 86.776ZM65.6209 85.84C64.7089 85.744 63.9809 85.344 63.4369 84.64C62.8929 83.936 62.6209 83.04 62.6209 81.952C62.6209 81.312 62.7169 80.648 62.9089 79.96C63.1009 79.272 63.3729 78.608 63.7249 77.968C64.0769 77.312 64.4929 76.696 64.9729 76.12C65.4529 75.544 65.9729 75.048 66.5329 74.632C67.4129 73.976 68.2369 73.648 69.0049 73.648C69.5169 73.92 70.0209 74.488 70.5169 75.352C70.5969 75.352 70.6689 75.352 70.7329 75.352C70.7969 75.336 70.8689 75.328 70.9489 75.328C71.7969 75.328 72.2209 76.08 72.2209 77.584C72.2209 78.592 72.0529 79.552 71.7169 80.464C71.3969 81.36 70.9409 82.176 70.3489 82.912C69.7729 83.648 69.0769 84.272 68.2609 84.784C67.4609 85.28 66.5809 85.632 65.6209 85.84ZM66.8449 78.28C66.5729 78.648 66.3169 79.048 66.0769 79.48C65.8369 79.912 65.6289 80.352 65.4529 80.8C65.2769 81.232 65.1409 81.656 65.0449 82.072C64.9489 82.472 64.9009 82.832 64.9009 83.152C64.9009 83.536 64.9649 83.904 65.0929 84.256C65.2209 84.608 65.3649 84.808 65.5249 84.856C66.2449 84.696 66.9009 84.4 67.4929 83.968C68.1009 83.52 68.6209 82.968 69.0529 82.312C69.5009 81.656 69.8449 80.912 70.0849 80.08C70.3409 79.248 70.4689 78.36 70.4689 77.416C70.4689 77 70.4449 76.672 70.3969 76.432C70.3489 76.192 70.2689 75.984 70.1569 75.808C69.4529 76.016 68.8209 76.352 68.2609 76.816C67.7169 77.28 67.2449 77.768 66.8449 78.28ZM72.8067 84.52C72.8867 84.056 73.0227 83.448 73.2147 82.696C73.4227 81.928 73.6627 81.12 73.9347 80.272C74.2067 79.408 74.4947 78.544 74.7987 77.68C75.1027 76.816 75.3987 76.04 75.6867 75.352C75.8947 74.856 76.0787 74.472 76.2387 74.2C76.3987 73.912 76.5747 73.672 76.7667 73.48C76.9907 73.512 77.2227 73.568 77.4627 73.648C77.7027 73.728 77.9347 73.824 78.1587 73.936C78.3827 74.048 78.5827 74.168 78.7587 74.296C78.9347 74.408 79.0707 74.52 79.1667 74.632C78.7347 75.144 78.3507 75.728 78.0147 76.384C77.6947 77.04 77.3667 77.88 77.0307 78.904C77.8947 78.136 78.6547 77.4 79.3107 76.696C79.9827 75.992 80.6067 75.208 81.1827 74.344C81.2787 74.264 81.4467 74.224 81.6867 74.224C81.9107 74.224 82.1267 74.264 82.3347 74.344C82.5427 74.408 82.6867 74.504 82.7667 74.632C82.4787 75.4 82.3347 76.16 82.3347 76.912C82.3347 77.616 82.4387 78.144 82.6467 78.496C82.6307 78.592 82.5187 78.776 82.3107 79.048C82.1187 79.32 81.9027 79.576 81.6627 79.816C81.2307 79.592 80.8467 79.288 80.5107 78.904C80.1747 78.504 79.9267 78.072 79.7667 77.608C79.0147 78.136 78.3747 78.656 77.8467 79.168C77.3187 79.664 76.8627 80.224 76.4787 80.848C76.1107 81.456 75.7907 82.16 75.5187 82.96C75.2627 83.76 75.0147 84.712 74.7747 85.816C74.6307 85.8 74.4547 85.744 74.2467 85.648C74.0547 85.568 73.8547 85.464 73.6467 85.336C73.4547 85.208 73.2787 85.072 73.1187 84.928C72.9587 84.784 72.8547 84.648 72.8067 84.52ZM84.4784 75.808C84.3984 75.712 84.3264 75.512 84.2624 75.208C84.1984 74.888 84.1664 74.616 84.1664 74.392C84.5824 74.424 84.9824 74.456 85.3664 74.488C85.7504 74.504 86.1024 74.52 86.4224 74.536C86.6624 74.056 86.9184 73.584 87.1904 73.12C87.4784 72.64 87.7504 72.208 88.0064 71.824C88.2784 71.424 88.5264 71.088 88.7504 70.816C88.9904 70.544 89.1744 70.368 89.3024 70.288C89.4624 70.288 89.6624 70.32 89.9024 70.384C90.1584 70.432 90.4144 70.504 90.6704 70.6C90.9264 70.68 91.1584 70.768 91.3664 70.864C91.5744 70.96 91.7184 71.056 91.7984 71.152C91.3184 71.76 90.9024 72.328 90.5504 72.856C90.2144 73.368 89.8464 73.96 89.4464 74.632C89.7664 74.632 90.0864 74.624 90.4064 74.608C90.7424 74.592 91.0784 74.568 91.4144 74.536C91.4944 74.616 91.5584 74.72 91.6064 74.848C91.6544 74.96 91.6784 75.08 91.6784 75.208C90.8944 75.496 89.9424 75.656 88.8224 75.688C88.4224 76.456 88.0624 77.224 87.7424 77.992C87.4384 78.744 87.1744 79.472 86.9504 80.176C86.7424 80.88 86.5744 81.544 86.4464 82.168C86.3344 82.792 86.2784 83.352 86.2784 83.848C86.2784 84.552 86.5424 84.944 87.0704 85.024C87.5504 84.96 88.0064 84.84 88.4384 84.664C88.8704 84.488 89.2544 84.264 89.5904 83.992C89.6864 84.136 89.7424 84.256 89.7584 84.352C89.6624 84.496 89.4944 84.664 89.2544 84.856C89.0304 85.048 88.7824 85.232 88.5104 85.408C88.2384 85.6 87.9744 85.76 87.7184 85.888C87.4624 86.016 87.2704 86.088 87.1424 86.104C86.7424 86.088 86.3424 86 85.9424 85.84C85.5424 85.68 85.1744 85.48 84.8384 85.24C84.5184 85 84.2544 84.736 84.0464 84.448C83.8384 84.144 83.7344 83.848 83.7344 83.56C83.7344 83.176 83.7824 82.696 83.8784 82.12C83.9904 81.528 84.1424 80.888 84.3344 80.2C84.5264 79.512 84.7504 78.792 85.0064 78.04C85.2624 77.288 85.5424 76.544 85.8464 75.808H84.4784ZM86.5347 92.152C86.5347 92.056 86.5667 91.968 86.6307 91.888C86.6947 91.808 86.7667 91.728 86.8467 91.648C87.0387 91.824 87.2067 91.96 87.3507 92.056C87.4787 92.152 87.6067 92.232 87.7347 92.296C87.8467 92.36 87.9667 92.4 88.0947 92.416C88.2227 92.432 88.3747 92.44 88.5507 92.44C89.3827 92.44 90.1747 92.216 90.9267 91.768C91.6787 91.336 92.3827 90.704 93.0387 89.872C93.7107 89.04 94.3187 88.024 94.8627 86.824C95.4067 85.624 95.8867 84.264 96.3027 82.744C96.1107 82.936 95.8707 83.152 95.5827 83.392C95.3107 83.616 95.0227 83.832 94.7187 84.04C94.4147 84.248 94.1107 84.44 93.8067 84.616C93.5187 84.792 93.2707 84.92 93.0627 85C92.7907 84.952 92.5347 84.84 92.2947 84.664C92.0707 84.472 91.8707 84.24 91.6947 83.968C91.5187 83.696 91.3827 83.392 91.2867 83.056C91.1907 82.704 91.1427 82.336 91.1427 81.952C91.1427 81.328 91.2547 80.688 91.4787 80.032C91.7187 79.376 92.0307 78.736 92.4147 78.112C92.7987 77.472 93.2467 76.872 93.7587 76.312C94.2867 75.752 94.8387 75.264 95.4147 74.848C96.0067 74.432 96.5987 74.104 97.1907 73.864C97.7987 73.608 98.3907 73.48 98.9667 73.48C99.5267 73.48 99.9427 73.6 100.215 73.84C100.503 74.064 100.711 74.456 100.839 75.016C100.663 74.92 100.439 74.872 100.167 74.872C99.7827 74.872 99.3347 75.024 98.8227 75.328C98.3267 75.632 97.8147 76.032 97.2867 76.528C96.7747 77.008 96.2627 77.568 95.7507 78.208C95.2387 78.832 94.7827 79.472 94.3827 80.128C93.9987 80.784 93.6787 81.424 93.4227 82.048C93.1827 82.672 93.0627 83.232 93.0627 83.728C93.0627 83.84 93.0707 83.912 93.0867 83.944C93.1027 83.96 93.1267 83.968 93.1587 83.968C93.3027 83.968 93.4947 83.888 93.7347 83.728C93.9907 83.568 94.2707 83.368 94.5747 83.128C94.8947 82.872 95.2227 82.584 95.5587 82.264C95.8947 81.928 96.2147 81.592 96.5187 81.256C97.2067 80.488 97.8307 79.632 98.3907 78.688C98.9667 77.728 99.4227 76.8 99.7587 75.904C100.191 75.936 100.575 76.008 100.911 76.12C101.247 76.232 101.479 76.352 101.607 76.48C101.063 77.728 100.623 78.776 100.287 79.624C99.9667 80.472 99.6867 81.224 99.4467 81.88C99.0147 83.032 98.6067 84.08 98.2227 85.024C97.8547 85.984 97.4707 86.864 97.0707 87.664C96.6867 88.48 96.2627 89.232 95.7987 89.92C95.3507 90.624 94.8387 91.296 94.2627 91.936C93.9907 92.24 93.6787 92.504 93.3267 92.728C92.9907 92.968 92.6387 93.168 92.2707 93.328C91.9187 93.488 91.5667 93.608 91.2147 93.688C90.8787 93.768 90.5667 93.808 90.2787 93.808C89.8947 93.808 89.5027 93.76 89.1027 93.664C88.7027 93.584 88.3347 93.464 87.9987 93.304C87.6467 93.16 87.3427 92.984 87.0867 92.776C86.8307 92.584 86.6467 92.376 86.5347 92.152ZM110.467 75.304C110.627 75.304 110.811 75.336 111.019 75.4C111.243 75.448 111.443 75.52 111.619 75.616C111.795 75.696 111.939 75.784 112.051 75.88C112.179 75.976 112.243 76.064 112.243 76.144C111.923 76.816 111.627 77.496 111.355 78.184C111.083 78.856 110.851 79.504 110.659 80.128C110.467 80.752 110.315 81.336 110.203 81.88C110.107 82.424 110.059 82.896 110.059 83.296C110.059 83.744 110.107 84.12 110.203 84.424C110.299 84.712 110.459 84.92 110.683 85.048C110.491 85.176 110.243 85.28 109.939 85.36C109.635 85.44 109.363 85.48 109.123 85.48C108.259 85.48 107.827 84.888 107.827 83.704C107.827 82.792 108.131 81.544 108.739 79.96C108.419 80.696 108.051 81.392 107.635 82.048C107.219 82.688 106.795 83.256 106.363 83.752C105.931 84.248 105.491 84.656 105.043 84.976C104.611 85.28 104.211 85.464 103.843 85.528C103.251 85.496 102.771 85.216 102.403 84.688C102.035 84.144 101.851 83.456 101.851 82.624C101.851 81.728 102.043 80.784 102.427 79.792C102.811 78.8 103.299 77.88 103.891 77.032C104.499 76.184 105.155 75.48 105.859 74.92C106.563 74.344 107.243 74.04 107.899 74.008C108.059 74.056 108.235 74.152 108.427 74.296C108.635 74.44 108.827 74.608 109.003 74.8C109.195 74.992 109.355 75.192 109.483 75.4C109.611 75.592 109.683 75.76 109.699 75.904C109.059 76 108.395 76.312 107.707 76.84C107.035 77.368 106.419 78.008 105.859 78.76C105.315 79.496 104.867 80.288 104.515 81.136C104.163 81.984 103.987 82.776 103.987 83.512C103.987 83.816 104.099 84.008 104.323 84.088C104.787 83.992 105.323 83.6 105.931 82.912C106.539 82.208 107.275 81.128 108.139 79.672C108.299 79.384 108.475 79.064 108.667 78.712C108.875 78.36 109.083 77.992 109.291 77.608C109.499 77.224 109.699 76.84 109.891 76.456C110.099 76.056 110.291 75.672 110.467 75.304ZM108.472 92.152C108.472 92.056 108.504 91.968 108.568 91.888C108.632 91.808 108.704 91.728 108.784 91.648C108.976 91.824 109.144 91.96 109.288 92.056C109.416 92.152 109.544 92.232 109.672 92.296C109.784 92.36 109.904 92.4 110.032 92.416C110.16 92.432 110.312 92.44 110.488 92.44C111.32 92.44 112.112 92.216 112.864 91.768C113.616 91.336 114.32 90.704 114.976 89.872C115.648 89.04 116.256 88.024 116.8 86.824C117.344 85.624 117.824 84.264 118.24 82.744C118.048 82.936 117.808 83.152 117.52 83.392C117.248 83.616 116.96 83.832 116.656 84.04C116.352 84.248 116.048 84.44 115.744 84.616C115.456 84.792 115.208 84.92 115 85C114.728 84.952 114.472 84.84 114.232 84.664C114.008 84.472 113.808 84.24 113.632 83.968C113.456 83.696 113.32 83.392 113.224 83.056C113.128 82.704 113.08 82.336 113.08 81.952C113.08 81.328 113.192 80.688 113.416 80.032C113.656 79.376 113.968 78.736 114.352 78.112C114.736 77.472 115.184 76.872 115.696 76.312C116.224 75.752 116.776 75.264 117.352 74.848C117.944 74.432 118.536 74.104 119.128 73.864C119.736 73.608 120.328 73.48 120.904 73.48C121.464 73.48 121.88 73.6 122.152 73.84C122.44 74.064 122.648 74.456 122.776 75.016C122.6 74.92 122.376 74.872 122.104 74.872C121.72 74.872 121.272 75.024 120.76 75.328C120.264 75.632 119.752 76.032 119.224 76.528C118.712 77.008 118.2 77.568 117.688 78.208C117.176 78.832 116.72 79.472 116.32 80.128C115.936 80.784 115.616 81.424 115.36 82.048C115.12 82.672 115 83.232 115 83.728C115 83.84 115.008 83.912 115.024 83.944C115.04 83.96 115.064 83.968 115.096 83.968C115.24 83.968 115.432 83.888 115.672 83.728C115.928 83.568 116.208 83.368 116.512 83.128C116.832 82.872 117.16 82.584 117.496 82.264C117.832 81.928 118.152 81.592 118.456 81.256C119.144 80.488 119.768 79.632 120.328 78.688C120.904 77.728 121.36 76.8 121.696 75.904C122.128 75.936 122.512 76.008 122.848 76.12C123.184 76.232 123.416 76.352 123.544 76.48C123 77.728 122.56 78.776 122.224 79.624C121.904 80.472 121.624 81.224 121.384 81.88C120.952 83.032 120.544 84.08 120.16 85.024C119.792 85.984 119.408 86.864 119.008 87.664C118.624 88.48 118.2 89.232 117.736 89.92C117.288 90.624 116.776 91.296 116.2 91.936C115.928 92.24 115.616 92.504 115.264 92.728C114.928 92.968 114.576 93.168 114.208 93.328C113.856 93.488 113.504 93.608 113.152 93.688C112.816 93.768 112.504 93.808 112.216 93.808C111.832 93.808 111.44 93.76 111.04 93.664C110.64 93.584 110.272 93.464 109.936 93.304C109.584 93.16 109.28 92.984 109.024 92.776C108.768 92.584 108.584 92.376 108.472 92.152ZM132.717 75.064C132.653 76.056 132.477 76.912 132.189 77.632C131.901 78.336 131.485 78.96 130.941 79.504C130.413 80.032 129.765 80.512 128.997 80.944C128.229 81.376 127.333 81.792 126.309 82.192C126.309 82.288 126.301 82.392 126.285 82.504C126.285 82.6 126.285 82.704 126.285 82.816C126.285 83.024 126.301 83.24 126.333 83.464C126.365 83.688 126.421 83.896 126.501 84.088C126.581 84.28 126.693 84.44 126.837 84.568C126.981 84.68 127.165 84.736 127.389 84.736C127.821 84.736 128.245 84.64 128.661 84.448C129.077 84.256 129.469 84.024 129.837 83.752C130.221 83.464 130.573 83.16 130.893 82.84C131.229 82.504 131.525 82.2 131.781 81.928C131.941 82.072 132.077 82.208 132.189 82.336C131.469 83.296 130.677 84.096 129.813 84.736C128.965 85.36 128.157 85.76 127.389 85.936C126.285 85.808 125.421 85.408 124.797 84.736C124.189 84.048 123.885 83.224 123.885 82.264C123.885 81.608 123.973 80.944 124.149 80.272C124.341 79.584 124.597 78.928 124.917 78.304C125.253 77.664 125.637 77.064 126.069 76.504C126.517 75.944 126.989 75.456 127.485 75.04C127.997 74.624 128.517 74.296 129.045 74.056C129.589 73.816 130.125 73.696 130.653 73.696C131.389 73.792 132.077 74.248 132.717 75.064ZM131.061 75.856C130.629 75.92 130.181 76.096 129.717 76.384C129.253 76.672 128.813 77.056 128.397 77.536C127.997 78.016 127.629 78.576 127.293 79.216C126.957 79.856 126.693 80.544 126.501 81.28C127.781 80.64 128.845 79.856 129.693 78.928C130.541 77.984 130.997 76.96 131.061 75.856ZM48.9354 109.776C48.9354 110.544 48.7594 111.272 48.4074 111.96C48.0714 112.632 47.5994 113.24 46.9914 113.784C46.3834 114.312 45.6714 114.76 44.8554 115.128C44.0394 115.496 43.1514 115.744 42.1914 115.872C42.4314 116.592 42.7194 117.336 43.0554 118.104C43.4074 118.856 43.7834 119.584 44.1834 120.288C44.5834 120.992 44.9994 121.64 45.4314 122.232C45.8634 122.824 46.2874 123.312 46.7034 123.696C46.6234 123.856 46.5034 124.016 46.3434 124.176C46.1994 124.336 46.0234 124.48 45.8154 124.608C45.6234 124.752 45.4154 124.864 45.1914 124.944C44.9834 125.04 44.7834 125.088 44.5914 125.088C44.2394 125.088 43.9034 124.92 43.5834 124.584C43.2634 124.248 42.9354 123.72 42.5994 123C42.2794 122.264 41.9354 121.32 41.5674 120.168C41.2154 119 40.8234 117.6 40.3914 115.968C40.2154 115.968 40.0394 115.968 39.8634 115.968C39.6874 115.968 39.5514 115.952 39.4554 115.92C39.3434 115.856 39.2234 115.744 39.0954 115.584C38.6634 116.512 38.2794 117.384 37.9434 118.2C37.6074 119.016 37.3034 119.808 37.0314 120.576C36.7754 121.328 36.5434 122.064 36.3354 122.784C36.1434 123.488 35.9754 124.208 35.8314 124.944C35.2874 124.816 34.8154 124.584 34.4154 124.248C34.0154 123.912 33.6394 123.44 33.2874 122.832C33.3514 122.688 33.4154 122.552 33.4794 122.424C33.5594 122.28 33.6554 122.088 33.7674 121.848C33.8794 121.592 34.0154 121.272 34.1754 120.888C34.3514 120.504 34.5754 119.992 34.8474 119.352C35.1354 118.712 35.4714 117.928 35.8554 117C36.2554 116.072 36.7354 114.944 37.2954 113.616C37.5514 113.024 37.7674 112.504 37.9434 112.056C38.1354 111.608 38.3034 111.184 38.4474 110.784C38.5914 110.368 38.7194 109.96 38.8314 109.56C38.9594 109.144 39.0874 108.672 39.2154 108.144C38.4794 108.4 37.7914 108.688 37.1514 109.008C36.5274 109.312 36.0074 109.64 35.5914 109.992C35.4474 109.896 35.2954 109.752 35.1354 109.56C34.9914 109.368 34.8554 109.16 34.7274 108.936C34.5994 108.696 34.4874 108.456 34.3914 108.216C34.2954 107.976 34.2394 107.76 34.2234 107.568C34.7034 107.248 35.2874 106.952 35.9754 106.68C36.6794 106.408 37.4234 106.176 38.2074 105.984C38.9914 105.776 39.7914 105.616 40.6074 105.504C41.4234 105.392 42.1834 105.336 42.8874 105.336C44.8074 105.336 46.2954 105.736 47.3514 106.536C48.4074 107.32 48.9354 108.4 48.9354 109.776ZM43.0794 107.76C42.9674 107.904 42.7914 108.192 42.5514 108.624C42.3114 109.056 42.0314 109.576 41.7114 110.184C41.4074 110.776 41.0794 111.424 40.7274 112.128C40.3914 112.832 40.0634 113.528 39.7434 114.216C40.9434 114.216 42.0474 114.104 43.0554 113.88C44.0634 113.656 44.9354 113.344 45.6714 112.944C46.4074 112.528 46.9754 112.048 47.3754 111.504C47.7914 110.944 47.9994 110.328 47.9994 109.656C47.9994 108.856 47.7114 108.248 47.1354 107.832C46.5594 107.4 45.6714 107.184 44.4714 107.184C44.1994 107.184 43.9274 107.2 43.6554 107.232C43.3834 107.248 43.0954 107.272 42.7914 107.304L43.0794 107.76ZM56.6973 113.064C56.6333 114.056 56.4573 114.912 56.1693 115.632C55.8813 116.336 55.4653 116.96 54.9213 117.504C54.3933 118.032 53.7453 118.512 52.9773 118.944C52.2093 119.376 51.3133 119.792 50.2893 120.192C50.2893 120.288 50.2813 120.392 50.2653 120.504C50.2653 120.6 50.2653 120.704 50.2653 120.816C50.2653 121.024 50.2813 121.24 50.3133 121.464C50.3453 121.688 50.4013 121.896 50.4813 122.088C50.5613 122.28 50.6733 122.44 50.8173 122.568C50.9613 122.68 51.1453 122.736 51.3693 122.736C51.8013 122.736 52.2253 122.64 52.6413 122.448C53.0573 122.256 53.4493 122.024 53.8173 121.752C54.2013 121.464 54.5533 121.16 54.8733 120.84C55.2093 120.504 55.5053 120.2 55.7613 119.928C55.9213 120.072 56.0573 120.208 56.1693 120.336C55.4493 121.296 54.6573 122.096 53.7933 122.736C52.9453 123.36 52.1373 123.76 51.3693 123.936C50.2653 123.808 49.4013 123.408 48.7773 122.736C48.1693 122.048 47.8653 121.224 47.8653 120.264C47.8653 119.608 47.9533 118.944 48.1293 118.272C48.3213 117.584 48.5773 116.928 48.8973 116.304C49.2333 115.664 49.6173 115.064 50.0493 114.504C50.4973 113.944 50.9693 113.456 51.4653 113.04C51.9773 112.624 52.4973 112.296 53.0253 112.056C53.5693 111.816 54.1053 111.696 54.6333 111.696C55.3693 111.792 56.0573 112.248 56.6973 113.064ZM55.0413 113.856C54.6093 113.92 54.1613 114.096 53.6973 114.384C53.2333 114.672 52.7933 115.056 52.3773 115.536C51.9773 116.016 51.6093 116.576 51.2733 117.216C50.9373 117.856 50.6733 118.544 50.4813 119.28C51.7613 118.64 52.8253 117.856 53.6733 116.928C54.5213 115.984 54.9773 114.96 55.0413 113.856ZM56.0565 130.944C55.8325 130.88 55.7045 130.64 55.6725 130.224C55.6085 130.016 55.5605 129.768 55.5285 129.48C55.5125 129.192 55.5045 128.864 55.5045 128.496C55.5045 128.16 55.5605 127.696 55.6725 127.104C55.7845 126.528 55.9365 125.872 56.1285 125.136C56.3365 124.4 56.5845 123.608 56.8725 122.76C57.1605 121.896 57.4805 121.024 57.8325 120.144C58.2645 119.04 58.6405 118.088 58.9605 117.288C59.2805 116.472 59.5445 115.768 59.7525 115.176C59.9765 114.584 60.1525 114.096 60.2805 113.712C60.4245 113.328 60.5365 113 60.6165 112.728C60.6805 112.536 60.7765 112.304 60.9045 112.032C61.0325 111.76 61.1765 111.488 61.3365 111.216C61.5125 110.928 61.6885 110.664 61.8645 110.424C62.0405 110.168 62.2005 109.976 62.3445 109.848C62.9045 109.928 63.4325 110.072 63.9285 110.28C64.4245 110.488 64.7285 110.688 64.8405 110.88C64.6165 111.088 64.3605 111.416 64.0725 111.864C63.7845 112.296 63.5045 112.776 63.2325 113.304C62.9605 113.816 62.7125 114.344 62.4885 114.888C62.2645 115.432 62.0965 115.912 61.9845 116.328C62.1445 116.056 62.3525 115.76 62.6085 115.44C62.8645 115.12 63.2565 114.68 63.7845 114.12C64.3765 113.512 64.9285 113.048 65.4405 112.728C65.9685 112.392 66.4245 112.224 66.8085 112.224C67.4165 112.224 67.9125 112.392 68.2965 112.728C68.6965 113.064 68.8965 113.496 68.8965 114.024C68.8965 115.176 68.7045 116.32 68.3205 117.456C67.9365 118.576 67.3845 119.592 66.6645 120.504C66.3925 120.856 66.0725 121.192 65.7045 121.512C65.3365 121.832 64.9525 122.12 64.5525 122.376C64.1525 122.616 63.7605 122.808 63.3765 122.952C62.9925 123.096 62.6485 123.168 62.3445 123.168C62.0565 123.168 61.8005 123.112 61.5765 123C61.3685 122.872 61.2245 122.72 61.1445 122.544C61.7685 122.176 62.3765 121.664 62.9685 121.008C63.5605 120.352 64.1045 119.6 64.6005 118.752C65.1125 117.888 65.5525 116.96 65.9205 115.968C66.3045 114.976 66.5925 113.968 66.7845 112.944C66.1765 113.264 65.6245 113.616 65.1285 114C64.6485 114.368 64.1685 114.856 63.6885 115.464C63.1125 116.168 62.6565 116.736 62.3205 117.168C61.9845 117.6 61.7045 117.968 61.4805 118.272C61.2725 118.576 61.0965 118.864 60.9525 119.136C60.8245 119.392 60.6805 119.712 60.5205 120.096C60.2965 120.608 60.0325 121.288 59.7285 122.136C59.4405 122.968 59.1365 123.904 58.8165 124.944C58.5125 125.984 58.2005 127.088 57.8805 128.256C57.5765 129.44 57.2805 130.616 56.9925 131.784C56.8165 131.752 56.6645 131.624 56.5365 131.4C56.4085 131.256 56.3125 131.152 56.2485 131.088C56.2005 131.024 56.1365 130.976 56.0565 130.944ZM78.0416 113.304C78.2016 113.304 78.3856 113.336 78.5936 113.4C78.8176 113.448 79.0176 113.52 79.1936 113.616C79.3696 113.696 79.5136 113.784 79.6256 113.88C79.7536 113.976 79.8176 114.064 79.8176 114.144C79.4976 114.816 79.2016 115.496 78.9296 116.184C78.6576 116.856 78.4256 117.504 78.2336 118.128C78.0416 118.752 77.8896 119.336 77.7776 119.88C77.6816 120.424 77.6336 120.896 77.6336 121.296C77.6336 121.744 77.6816 122.12 77.7776 122.424C77.8736 122.712 78.0336 122.92 78.2576 123.048C78.0656 123.176 77.8176 123.28 77.5136 123.36C77.2096 123.44 76.9376 123.48 76.6976 123.48C75.8336 123.48 75.4016 122.888 75.4016 121.704C75.4016 120.792 75.7056 119.544 76.3136 117.96C75.9936 118.696 75.6256 119.392 75.2096 120.048C74.7936 120.688 74.3696 121.256 73.9376 121.752C73.5056 122.248 73.0656 122.656 72.6176 122.976C72.1856 123.28 71.7856 123.464 71.4176 123.528C70.8256 123.496 70.3456 123.216 69.9776 122.688C69.6096 122.144 69.4256 121.456 69.4256 120.624C69.4256 119.728 69.6176 118.784 70.0016 117.792C70.3856 116.8 70.8736 115.88 71.4656 115.032C72.0736 114.184 72.7296 113.48 73.4336 112.92C74.1376 112.344 74.8176 112.04 75.4736 112.008C75.6336 112.056 75.8096 112.152 76.0016 112.296C76.2096 112.44 76.4016 112.608 76.5776 112.8C76.7696 112.992 76.9296 113.192 77.0576 113.4C77.1856 113.592 77.2576 113.76 77.2736 113.904C76.6336 114 75.9696 114.312 75.2816 114.84C74.6096 115.368 73.9936 116.008 73.4336 116.76C72.8896 117.496 72.4416 118.288 72.0896 119.136C71.7376 119.984 71.5616 120.776 71.5616 121.512C71.5616 121.816 71.6736 122.008 71.8976 122.088C72.3616 121.992 72.8976 121.6 73.5056 120.912C74.1136 120.208 74.8496 119.128 75.7136 117.672C75.8736 117.384 76.0496 117.064 76.2416 116.712C76.4496 116.36 76.6576 115.992 76.8656 115.608C77.0736 115.224 77.2736 114.84 77.4656 114.456C77.6736 114.056 77.8656 113.672 78.0416 113.304ZM89.9653 119.28C89.5973 120.448 89.2293 121.512 88.8613 122.472C88.4933 123.432 88.1013 124.312 87.6853 125.112C87.2693 125.928 86.8213 126.672 86.3413 127.344C85.8613 128.032 85.3333 128.68 84.7573 129.288C84.0213 130.056 83.2613 130.64 82.4773 131.04C81.6933 131.456 80.9093 131.664 80.1253 131.664C79.7253 131.664 79.3253 131.616 78.9253 131.52C78.5413 131.44 78.1813 131.32 77.8453 131.16C77.4933 131.016 77.1893 130.84 76.9333 130.632C76.6613 130.44 76.4693 130.232 76.3573 130.008C76.3573 129.816 76.4693 129.648 76.6933 129.504C76.8853 129.68 77.0453 129.816 77.1733 129.912C77.3013 130.008 77.4293 130.088 77.5573 130.152C77.6693 130.216 77.7973 130.256 77.9413 130.272C78.0693 130.288 78.2213 130.296 78.3973 130.296C79.3093 130.296 80.1973 130.024 81.0613 129.48C81.9413 128.952 82.7653 128.192 83.5333 127.2C84.3173 126.224 85.0293 125.032 85.6693 123.624C86.3093 122.232 86.8533 120.672 87.3013 118.944C87.0933 119.264 86.8373 119.656 86.5333 120.12C86.2293 120.584 85.8933 121.048 85.5253 121.512C85.1573 121.96 84.7733 122.368 84.3733 122.736C83.9893 123.104 83.6133 123.352 83.2453 123.48C82.9893 123.464 82.7173 123.408 82.4293 123.312C82.1573 123.232 81.8933 123.112 81.6373 122.952C81.3973 122.792 81.1813 122.6 80.9893 122.376C80.7973 122.152 80.6693 121.896 80.6053 121.608C80.6053 121.144 80.6213 120.776 80.6533 120.504C80.6853 120.216 80.7413 119.904 80.8213 119.568C80.9653 118.96 81.1733 118.272 81.4453 117.504C81.7333 116.736 82.0613 115.984 82.4293 115.248C82.8133 114.496 83.2293 113.8 83.6773 113.16C84.1413 112.504 84.6213 111.992 85.1173 111.624C85.2453 111.624 85.4053 111.64 85.5973 111.672C85.7893 111.688 85.9893 111.728 86.1973 111.792C86.4053 111.856 86.6053 111.936 86.7973 112.032C86.9893 112.112 87.1573 112.224 87.3013 112.368C87.1253 112.528 86.7413 113.064 86.1493 113.976C85.5573 114.888 84.9013 116.2 84.1813 117.912C84.1013 118.088 84.0053 118.344 83.8933 118.68C83.7813 119.016 83.6693 119.368 83.5573 119.736C83.4613 120.104 83.3733 120.464 83.2933 120.816C83.2133 121.168 83.1733 121.448 83.1733 121.656C83.1733 121.784 83.1893 121.88 83.2213 121.944C83.2693 122.008 83.3093 122.056 83.3413 122.088C83.6293 122.04 84.0133 121.808 84.4933 121.392C84.9733 120.96 85.5173 120.296 86.1253 119.4C86.5093 118.824 86.8613 118.256 87.1813 117.696C87.5013 117.12 87.8133 116.544 88.1173 115.968C88.4373 115.392 88.7653 114.8 89.1013 114.192C89.4373 113.584 89.7973 112.96 90.1813 112.32C90.3893 112.32 90.6133 112.344 90.8533 112.392C91.0933 112.44 91.3253 112.504 91.5493 112.584C91.7733 112.648 91.9653 112.728 92.1253 112.824C92.3013 112.904 92.4293 112.992 92.5093 113.088C92.0133 114.144 91.5493 115.176 91.1173 116.184C90.6853 117.192 90.3013 118.224 89.9653 119.28ZM106.555 115.632C106.299 115.648 105.987 115.816 105.619 116.136C105.251 116.44 104.851 116.84 104.419 117.336C104.003 117.816 103.563 118.352 103.099 118.944C102.651 119.536 102.211 120.128 101.779 120.72C101.363 121.296 100.971 121.84 100.603 122.352C100.235 122.864 99.9235 123.272 99.6675 123.576C99.3155 123.432 99.0115 123.224 98.7555 122.952C98.4995 122.664 98.3155 122.312 98.2035 121.896C98.2835 121.4 98.3955 120.888 98.5395 120.36C98.6835 119.816 98.8675 119.256 99.0915 118.68C99.3315 118.104 99.6195 117.504 99.9555 116.88C100.307 116.24 100.731 115.568 101.227 114.864C100.987 114.88 100.659 115.056 100.243 115.392C99.8275 115.712 99.3795 116.136 98.8995 116.664C98.4195 117.176 97.9235 117.76 97.4115 118.416C96.8995 119.056 96.4195 119.688 95.9715 120.312C95.3795 121.144 94.8835 121.872 94.4835 122.496C94.0995 123.12 93.8195 123.488 93.6435 123.6C93.2275 123.296 92.9395 122.968 92.7795 122.616C92.6195 122.264 92.4995 121.872 92.4195 121.44C92.4355 121.056 92.4915 120.576 92.5875 120C92.6995 119.424 92.8515 118.832 93.0435 118.224C93.4115 117.056 93.8835 115.896 94.4595 114.744C95.0515 113.592 95.6195 112.536 96.1635 111.576C96.6115 111.672 97.0115 111.824 97.3635 112.032C97.7315 112.24 98.1155 112.544 98.5155 112.944C98.3555 113.44 98.1075 113.968 97.7715 114.528C97.4355 115.072 97.0835 115.648 96.7155 116.256C96.3475 116.864 96.0115 117.488 95.7075 118.128C95.4035 118.768 95.2035 119.416 95.1075 120.072C95.5555 119.432 96.0835 118.696 96.6915 117.864C97.3155 117.032 97.9475 116.248 98.5875 115.512C99.2435 114.776 99.8915 114.152 100.531 113.64C101.171 113.128 101.747 112.872 102.259 112.872C102.451 112.872 102.659 112.904 102.883 112.968C103.107 113.032 103.315 113.112 103.507 113.208C103.699 113.304 103.859 113.4 103.987 113.496C104.115 113.576 104.187 113.64 104.203 113.688C104.123 114.008 103.931 114.448 103.627 115.008C103.339 115.552 103.027 116.128 102.691 116.736C102.355 117.344 102.043 117.936 101.755 118.512C101.467 119.072 101.299 119.52 101.251 119.856C102.035 118.784 102.771 117.816 103.459 116.952C104.147 116.072 104.795 115.32 105.403 114.696C106.011 114.072 106.571 113.592 107.083 113.256C107.611 112.92 108.107 112.752 108.571 112.752C108.891 112.752 109.187 112.84 109.459 113.016C109.747 113.176 109.947 113.416 110.059 113.736C109.915 114.216 109.675 114.792 109.339 115.464C109.019 116.136 108.691 116.848 108.355 117.6C108.019 118.336 107.715 119.064 107.443 119.784C107.187 120.504 107.059 121.152 107.059 121.728C107.059 122.064 107.107 122.288 107.203 122.4C107.299 122.496 107.435 122.544 107.611 122.544C107.803 122.544 107.979 122.512 108.139 122.448C108.315 122.368 108.443 122.328 108.523 122.328C108.619 122.392 108.675 122.472 108.691 122.568C108.707 122.664 108.715 122.752 108.715 122.832C108.395 123.088 108.067 123.296 107.731 123.456C107.395 123.632 107.019 123.72 106.603 123.72C106.219 123.72 105.899 123.656 105.643 123.528C105.403 123.4 105.203 123.224 105.043 123C104.883 122.776 104.771 122.52 104.707 122.232C104.643 121.944 104.611 121.632 104.611 121.296C104.611 120.752 104.683 120.216 104.827 119.688C104.971 119.144 105.139 118.632 105.331 118.152C105.539 117.656 105.755 117.2 105.979 116.784C106.203 116.352 106.395 115.968 106.555 115.632ZM119.627 113.064C119.563 114.056 119.387 114.912 119.099 115.632C118.811 116.336 118.395 116.96 117.851 117.504C117.323 118.032 116.675 118.512 115.907 118.944C115.139 119.376 114.243 119.792 113.219 120.192C113.219 120.288 113.211 120.392 113.195 120.504C113.195 120.6 113.195 120.704 113.195 120.816C113.195 121.024 113.211 121.24 113.243 121.464C113.275 121.688 113.331 121.896 113.411 122.088C113.491 122.28 113.603 122.44 113.747 122.568C113.891 122.68 114.075 122.736 114.299 122.736C114.731 122.736 115.155 122.64 115.571 122.448C115.987 122.256 116.379 122.024 116.747 121.752C117.131 121.464 117.483 121.16 117.803 120.84C118.139 120.504 118.435 120.2 118.691 119.928C118.851 120.072 118.987 120.208 119.099 120.336C118.379 121.296 117.587 122.096 116.723 122.736C115.875 123.36 115.067 123.76 114.299 123.936C113.195 123.808 112.331 123.408 111.707 122.736C111.099 122.048 110.795 121.224 110.795 120.264C110.795 119.608 110.883 118.944 111.059 118.272C111.251 117.584 111.507 116.928 111.827 116.304C112.163 115.664 112.547 115.064 112.979 114.504C113.427 113.944 113.899 113.456 114.395 113.04C114.907 112.624 115.427 112.296 115.955 112.056C116.499 111.816 117.035 111.696 117.563 111.696C118.299 111.792 118.987 112.248 119.627 113.064ZM117.971 113.856C117.539 113.92 117.091 114.096 116.627 114.384C116.163 114.672 115.723 115.056 115.307 115.536C114.907 116.016 114.539 116.576 114.203 117.216C113.867 117.856 113.603 118.544 113.411 119.28C114.691 118.64 115.755 117.856 116.603 116.928C117.451 115.984 117.907 114.96 117.971 113.856ZM124.626 111.36C125.042 111.488 125.434 111.776 125.802 112.224C126.17 112.656 126.442 113.136 126.618 113.664C126.442 114.096 126.17 114.616 125.802 115.224C125.434 115.832 125.066 116.456 124.698 117.096C124.33 117.72 123.994 118.32 123.69 118.896C123.402 119.456 123.234 119.92 123.186 120.288C123.442 120.016 123.722 119.704 124.026 119.352C124.346 118.984 124.65 118.624 124.938 118.272C125.242 117.904 125.522 117.576 125.778 117.288C126.034 116.984 126.234 116.76 126.378 116.616C126.682 116.296 127.042 115.928 127.458 115.512C127.874 115.08 128.306 114.68 128.754 114.312C129.218 113.928 129.682 113.608 130.146 113.352C130.61 113.08 131.034 112.944 131.418 112.944C131.834 112.944 132.178 113.088 132.45 113.376C132.738 113.648 132.962 113.936 133.122 114.24C133.122 114.272 133.058 114.32 132.93 114.384C132.818 114.432 132.65 114.584 132.426 114.84C132.202 115.128 131.946 115.528 131.658 116.04C131.386 116.536 131.114 117.08 130.842 117.672C130.586 118.248 130.37 118.84 130.194 119.448C130.018 120.056 129.93 120.608 129.93 121.104C129.93 121.504 129.978 121.76 130.074 121.872C130.186 121.984 130.338 122.04 130.53 122.04C130.706 122.04 130.89 122 131.082 121.92C131.274 121.84 131.426 121.8 131.538 121.8C131.602 121.832 131.65 121.904 131.682 122.016C131.73 122.112 131.754 122.2 131.754 122.28C131.626 122.392 131.474 122.504 131.298 122.616C131.122 122.728 130.938 122.832 130.746 122.928C130.554 123.024 130.362 123.104 130.17 123.168C129.994 123.232 129.834 123.264 129.69 123.264C129.226 123.264 128.842 123.192 128.538 123.048C128.25 122.92 128.018 122.744 127.842 122.52C127.682 122.296 127.57 122.032 127.506 121.728C127.442 121.408 127.41 121.072 127.41 120.72C127.41 120.528 127.426 120.312 127.458 120.072C127.49 119.832 127.554 119.552 127.65 119.232C127.746 118.896 127.882 118.504 128.058 118.056C128.234 117.592 128.458 117.04 128.73 116.4C128.698 116.4 128.482 116.512 128.082 116.736C127.682 116.96 127.25 117.304 126.786 117.768C126.034 118.488 125.354 119.2 124.746 119.904C124.154 120.608 123.546 121.392 122.922 122.256C122.57 122.752 122.258 123.168 121.986 123.504C121.73 123.856 121.506 124.088 121.314 124.2C120.978 124.008 120.73 123.736 120.57 123.384C120.41 123.048 120.29 122.696 120.21 122.328C120.21 122.024 120.25 121.64 120.33 121.176C120.426 120.712 120.546 120.2 120.69 119.64C120.85 119.064 121.042 118.464 121.266 117.84C121.49 117.216 121.738 116.592 122.01 115.968C122.618 114.56 123.17 113.456 123.666 112.656C124.178 111.856 124.498 111.424 124.626 111.36ZM135.115 113.808C135.035 113.712 134.963 113.512 134.899 113.208C134.835 112.888 134.803 112.616 134.803 112.392C135.219 112.424 135.619 112.456 136.003 112.488C136.387 112.504 136.739 112.52 137.059 112.536C137.299 112.056 137.555 111.584 137.827 111.12C138.115 110.64 138.387 110.208 138.643 109.824C138.915 109.424 139.163 109.088 139.387 108.816C139.627 108.544 139.811 108.368 139.939 108.288C140.099 108.288 140.299 108.32 140.539 108.384C140.795 108.432 141.051 108.504 141.307 108.6C141.563 108.68 141.795 108.768 142.003 108.864C142.211 108.96 142.355 109.056 142.435 109.152C141.955 109.76 141.539 110.328 141.187 110.856C140.851 111.368 140.483 111.96 140.083 112.632C140.403 112.632 140.723 112.624 141.043 112.608C141.379 112.592 141.715 112.568 142.051 112.536C142.131 112.616 142.195 112.72 142.243 112.848C142.291 112.96 142.315 113.08 142.315 113.208C141.531 113.496 140.579 113.656 139.459 113.688C139.059 114.456 138.699 115.224 138.379 115.992C138.075 116.744 137.811 117.472 137.587 118.176C137.379 118.88 137.211 119.544 137.083 120.168C136.971 120.792 136.915 121.352 136.915 121.848C136.915 122.552 137.179 122.944 137.707 123.024C138.187 122.96 138.643 122.84 139.075 122.664C139.507 122.488 139.891 122.264 140.227 121.992C140.323 122.136 140.379 122.256 140.395 122.352C140.299 122.496 140.131 122.664 139.891 122.856C139.667 123.048 139.419 123.232 139.147 123.408C138.875 123.6 138.611 123.76 138.355 123.888C138.099 124.016 137.907 124.088 137.779 124.104C137.379 124.088 136.979 124 136.579 123.84C136.179 123.68 135.811 123.48 135.475 123.24C135.155 123 134.891 122.736 134.683 122.448C134.475 122.144 134.371 121.848 134.371 121.56C134.371 121.176 134.419 120.696 134.515 120.12C134.627 119.528 134.779 118.888 134.971 118.2C135.163 117.512 135.387 116.792 135.643 116.04C135.899 115.288 136.179 114.544 136.483 113.808H135.115Z" fill="#4B84B3"/>
</g>
<defs>
<filter id="filter0_i_1_45" x="33.2874" y="67.336" width="109.148" height="68.448" filterUnits="userSpaceOnUse" color-interpolation-filters="sRGB">
<feFlood flood-opacity="0" result="BackgroundImageFix"/>
<feBlend mode="normal" in="SourceGraphic" in2="BackgroundImageFix" result="shape"/>
<feColorMatrix in="SourceAlpha" type="matrix" values="0 0 0 0 0 0 0 0 0 0 0 0 0 0 0 0 0 0 127 0" result="hardAlpha"/>
<feOffset dy="4"/>
<feGaussianBlur stdDeviation="2"/>
<feComposite in2="hardAlpha" operator="arithmetic" k2="-1" k3="1"/>
<feColorMatrix type="matrix" values="0 0 0 0 0 0 0 0 0 0 0 0 0 0 0 0 0 0 0.25 0"/>
<feBlend mode="normal" in2="shape" result="effect1_innerShadow_1_45"/>
</filter>
</defs>
</svg>
