<svg width="178" height="137" viewBox="0 0 178 137" fill="none" xmlns="http://www.w3.org/2000/svg">
<path d="M143.385 16.279C159.485 23.5485 171.1 43.0785 171.79 63.151C172.48 83.2235 162.13 103.838 145.915 116.859C129.815 129.77 107.965 135.087 94.855 126.732C81.745 118.378 77.605 96.4605 61.505 83.4405C45.52 70.4205 17.805 66.5145 8.03 53.2775C-1.745 40.0405 6.42 17.581 22.405 10.3115C38.39 3.042 62.195 10.854 84.39 12.373C106.585 13.7835 127.285 9.0095 143.385 16.279Z" fill="#C5E4E7"/>
<g filter="url(#filter0_i_1_49)">
<path d="M76.2015 47.184C75.2415 47.184 74.4975 46.92 73.9695 46.392C73.4655 45.84 73.2135 45.18 73.2135 44.412C73.2135 44.22 73.2375 43.992 73.2855 43.728C73.3575 43.464 73.4415 43.236 73.5375 43.044C73.8495 43.188 74.3055 43.296 74.9055 43.368C75.5295 43.416 76.2495 43.44 77.0655 43.44C78.2895 43.44 79.6695 43.392 81.2055 43.296C82.7655 43.176 84.2535 43.056 85.6695 42.936C87.0855 42.816 88.3335 42.708 89.4135 42.612C90.4935 42.492 91.1895 42.432 91.5015 42.432C92.3895 42.432 93.0255 42.768 93.4095 43.44C93.8175 44.088 94.1175 44.964 94.3095 46.068C93.6855 46.02 93.0615 45.984 92.4375 45.96C91.8375 45.912 91.3215 45.888 90.8895 45.888C90.1215 45.888 89.3415 45.912 88.5495 45.96C87.7815 46.008 87.0015 46.08 86.2095 46.176C85.8735 46.872 85.5015 47.7 85.0935 48.66C84.6855 49.596 84.2775 50.58 83.8695 51.612C83.4855 52.644 83.1135 53.676 82.7535 54.708C82.3935 55.716 82.0815 56.628 81.8175 57.444C81.2895 59.028 80.8215 60.492 80.4135 61.836C80.0295 63.18 79.6815 64.44 79.3695 65.616C79.0815 66.768 78.8295 67.872 78.6135 68.928C78.3975 69.984 78.2055 71.016 78.0375 72.024C76.4295 71.784 75.0855 70.776 74.0055 69C74.1975 68.256 74.4255 67.452 74.6895 66.588C74.9775 65.7 75.3015 64.704 75.6615 63.6C76.0455 62.472 76.4895 61.2 76.9935 59.784C77.4975 58.368 78.0735 56.76 78.7215 54.96C78.9615 54.288 79.2135 53.592 79.4775 52.872C79.7415 52.128 79.9935 51.396 80.2335 50.676C80.4975 49.956 80.7255 49.26 80.9175 48.588C81.1335 47.916 81.3135 47.304 81.4575 46.752C80.4495 46.872 79.4895 46.98 78.5775 47.076C77.6895 47.148 76.8975 47.184 76.2015 47.184ZM88.653 66.588C88.653 66.372 88.665 66.108 88.689 65.796C88.737 65.46 88.809 65.028 88.905 64.5C89.001 63.948 89.121 63.288 89.265 62.52C89.433 61.752 89.637 60.828 89.877 59.748C89.925 59.508 90.033 59.124 90.201 58.596C90.369 58.068 90.585 57.516 90.849 56.94C91.137 56.34 91.473 55.764 91.857 55.212C92.265 54.66 92.745 54.252 93.297 53.988C93.705 54.084 94.245 54.336 94.917 54.744C95.589 55.128 96.165 55.668 96.645 56.364C96.093 56.988 95.625 57.612 95.241 58.236C94.881 58.86 94.545 59.508 94.233 60.18C93.945 60.852 93.669 61.548 93.405 62.268C93.165 62.988 92.889 63.744 92.577 64.536C92.313 65.208 92.073 65.904 91.857 66.624C91.641 67.32 91.521 67.932 91.497 68.46C91.497 68.892 91.485 69.192 91.461 69.36C91.461 69.552 91.401 69.648 91.281 69.648C91.185 69.648 90.993 69.588 90.705 69.468C90.417 69.348 90.117 69.168 89.805 68.928C89.517 68.664 89.253 68.34 89.013 67.956C88.773 67.572 88.653 67.116 88.653 66.588ZM95.529 50.964C95.529 50.82 95.565 50.604 95.637 50.316C95.517 50.196 95.409 50.016 95.313 49.776C95.241 49.536 95.205 49.32 95.205 49.128C95.205 48.912 95.229 48.624 95.277 48.264C95.349 47.88 95.433 47.472 95.529 47.04C95.625 46.608 95.745 46.164 95.889 45.708C96.033 45.228 96.177 44.796 96.321 44.412C96.609 44.412 96.957 44.496 97.365 44.664C97.797 44.808 98.229 45.012 98.661 45.276C99.093 45.516 99.489 45.792 99.849 46.104C100.209 46.392 100.485 46.668 100.677 46.932C100.413 47.196 100.065 47.568 99.633 48.048C99.201 48.504 98.781 48.996 98.373 49.524C97.965 50.028 97.593 50.508 97.257 50.964C96.921 51.42 96.705 51.744 96.609 51.936C96.321 51.888 96.069 51.768 95.853 51.576C95.637 51.36 95.529 51.156 95.529 50.964ZM94.4968 80.916C94.1608 80.82 93.9688 80.46 93.9208 79.836C93.8248 79.524 93.7528 79.152 93.7048 78.72C93.6808 78.288 93.6688 77.796 93.6688 77.244C93.6688 76.74 93.7528 76.044 93.9208 75.156C94.0888 74.292 94.3168 73.308 94.6048 72.204C94.9168 71.1 95.2888 69.912 95.7208 68.64C96.1528 67.344 96.6328 66.036 97.1608 64.716C97.8088 63.06 98.3728 61.632 98.8528 60.432C99.3328 59.208 99.7288 58.152 100.041 57.264C100.377 56.376 100.641 55.644 100.833 55.068C101.049 54.492 101.217 54 101.337 53.592C101.433 53.304 101.577 52.956 101.769 52.548C101.961 52.14 102.177 51.732 102.417 51.324C102.681 50.892 102.945 50.496 103.209 50.136C103.473 49.752 103.713 49.464 103.929 49.272C104.769 49.392 105.561 49.608 106.305 49.92C107.049 50.232 107.505 50.532 107.673 50.82C107.337 51.132 106.953 51.624 106.521 52.296C106.089 52.944 105.669 53.664 105.261 54.456C104.853 55.224 104.481 56.016 104.145 56.832C103.809 57.648 103.557 58.368 103.389 58.992C103.629 58.584 103.941 58.14 104.325 57.66C104.709 57.18 105.297 56.52 106.089 55.68C106.977 54.768 107.805 54.072 108.573 53.592C109.365 53.088 110.049 52.836 110.625 52.836C111.537 52.836 112.281 53.088 112.857 53.592C113.457 54.096 113.757 54.744 113.757 55.536C113.757 57.264 113.469 58.98 112.893 60.684C112.317 62.364 111.489 63.888 110.409 65.256C110.001 65.784 109.521 66.288 108.969 66.768C108.417 67.248 107.841 67.68 107.241 68.064C106.641 68.424 106.053 68.712 105.477 68.928C104.901 69.144 104.385 69.252 103.929 69.252C103.497 69.252 103.113 69.168 102.777 69C102.465 68.808 102.249 68.58 102.129 68.316C103.065 67.764 103.977 66.996 104.865 66.012C105.753 65.028 106.569 63.9 107.313 62.628C108.081 61.332 108.741 59.94 109.293 58.452C109.869 56.964 110.301 55.452 110.589 53.916C109.677 54.396 108.849 54.924 108.105 55.5C107.385 56.052 106.665 56.784 105.945 57.696C105.081 58.752 104.397 59.604 103.893 60.252C103.389 60.9 102.969 61.452 102.633 61.908C102.321 62.364 102.057 62.796 101.841 63.204C101.649 63.588 101.433 64.068 101.193 64.644C100.857 65.412 100.461 66.432 100.005 67.704C99.5728 68.952 99.1168 70.356 98.6368 71.916C98.1808 73.476 97.7128 75.132 97.2328 76.884C96.7768 78.66 96.3328 80.424 95.9008 82.176C95.6368 82.128 95.4088 81.936 95.2168 81.6C95.0248 81.384 94.8808 81.228 94.7848 81.132C94.7128 81.036 94.6168 80.964 94.4968 80.916Z" fill="#579CAC"/>
</g>
<defs>
<filter id="filter0_i_1_49" x="73.2135" y="42.432" width="40.5433" height="43.744" filterUnits="userSpaceOnUse" color-interpolation-filters="sRGB">
<feFlood flood-opacity="0" result="BackgroundImageFix"/>
<feBlend mode="normal" in="SourceGraphic" in2="BackgroundImageFix" result="shape"/>
<feColorMatrix in="SourceAlpha" type="matrix" values="0 0 0 0 0 0 0 0 0 0 0 0 0 0 0 0 0 0 127 0" result="hardAlpha"/>
<feOffset dy="4"/>
<feGaussianBlur stdDeviation="2"/>
<feComposite in2="hardAlpha" operator="arithmetic" k2="-1" k3="1"/>
<feColorMatrix type="matrix" values="0 0 0 0 0 0 0 0 0 0 0 0 0 0 0 0 0 0 0.25 0"/>
<feBlend mode="normal" in2="shape" result="effect1_innerShadow_1_49"/>
</filter>
</defs>
</svg>
