<svg width="173" height="143" viewBox="0 0 173 143" fill="none" xmlns="http://www.w3.org/2000/svg">
<path d="M144.957 13.5534C161.545 27.6254 171.476 57.2053 162.787 75.8722C154.098 94.5392 126.902 102.006 110.313 110.621C93.6124 119.237 87.7444 128.858 77.3626 134.314C66.9808 139.914 52.3109 141.637 36.8511 133.022C21.3912 124.406 5.14147 105.739 7.17269 89.5135C9.09106 73.2876 29.4033 59.6464 44.8631 45.5744C60.3229 31.5024 71.0432 17.1432 88.0829 9.10204C105.123 1.0609 128.369 -0.518609 144.957 13.5534Z" fill="#E7E5E4"/>
<path d="M67.8439 84.432C66.8199 84.1333 66.1052 83.8347 65.6999 83.536C65.3159 83.2373 65.1239 82.864 65.1239 82.416C65.1239 82.0747 65.2199 81.5947 65.4119 80.976C65.6039 80.3573 65.8812 79.632 66.2439 78.8C66.6279 77.9467 67.0759 77.008 67.5879 75.984C68.1212 74.96 68.7185 73.8613 69.3799 72.688C68.8252 72.6667 68.3239 72.656 67.8759 72.656C67.4492 72.6347 67.0972 72.624 66.8199 72.624C66.9479 72.304 67.3105 72.0267 67.9079 71.792C68.5052 71.5573 69.2945 71.3547 70.2759 71.184C71.1079 69.7973 71.9932 68.4747 72.9319 67.216C73.8919 65.9573 74.8519 64.8053 75.8119 63.76C76.7719 62.6933 77.7319 61.7653 78.6919 60.976C79.6519 60.1653 80.5692 59.5253 81.4439 59.056C81.4652 58.9067 81.4759 58.7787 81.4759 58.672C81.4972 58.5653 81.5079 58.4907 81.5079 58.448C81.8065 58.448 82.2012 58.5227 82.6919 58.672C83.2039 58.8213 83.6945 59.0027 84.1639 59.216C84.6545 59.4293 85.0812 59.6533 85.4439 59.888C85.8279 60.1013 86.0412 60.2827 86.0839 60.432C85.3799 61.6693 84.6865 63.5253 84.0039 66C83.3212 68.4533 82.7559 71.3973 82.3079 74.832C82.2012 75.6853 82.1052 76.656 82.0199 77.744C81.9559 78.832 81.9239 80.048 81.9239 81.392C81.9239 81.8613 81.9239 82.3413 81.9239 82.832C81.9239 83.3227 81.9452 83.8347 81.9879 84.368C81.9452 84.3893 81.9025 84.4 81.8599 84.4C81.8172 84.4 81.7319 84.4 81.6039 84.4C81.3052 84.4 80.9532 84.3467 80.5479 84.24C80.1639 84.1547 79.7799 84.0373 79.3959 83.888C79.0332 83.76 78.7132 83.6107 78.4359 83.44C78.1799 83.2693 78.0199 83.12 77.9559 82.992C77.9345 82.7147 77.9239 82.4373 77.9239 82.16C77.9239 81.904 77.9239 81.6267 77.9239 81.328C77.9239 80.0053 77.9665 78.6613 78.0519 77.296C78.1585 75.9307 78.3292 74.5227 78.5639 73.072C78.2652 73.0507 77.8705 73.0293 77.3799 73.008C76.8892 72.9653 76.3345 72.9333 75.7159 72.912C75.1185 72.8907 74.4679 72.8693 73.7639 72.848C73.0812 72.8053 72.4092 72.7733 71.7479 72.752C71.2359 73.712 70.7559 74.672 70.3079 75.632C69.8599 76.5707 69.4759 77.52 69.1559 78.48C68.7932 79.504 68.4945 80.528 68.2599 81.552C68.0465 82.576 67.9079 83.536 67.8439 84.432ZM80.1959 65.2C80.2812 64.9013 80.3772 64.496 80.4839 63.984C80.6119 63.4507 80.7292 62.896 80.8359 62.32C80.3025 62.512 79.7052 62.864 79.0439 63.376C78.4039 63.888 77.7319 64.528 77.0279 65.296C76.3452 66.0427 75.6412 66.896 74.9159 67.856C74.2119 68.7947 73.5292 69.7973 72.8679 70.864C74.6599 70.7147 76.6972 70.6187 78.9799 70.576C79.1505 69.68 79.3319 68.7947 79.5239 67.92C79.7372 67.024 79.9612 66.1173 80.1959 65.2ZM79.1244 91.536C79.1244 91.408 79.167 91.2907 79.2524 91.184C79.3377 91.0773 79.4337 90.9707 79.5404 90.864C79.7964 91.0987 80.0204 91.28 80.2124 91.408C80.383 91.536 80.5537 91.6427 80.7244 91.728C80.8737 91.8133 81.0337 91.8667 81.2044 91.888C81.375 91.9093 81.5777 91.92 81.8124 91.92C82.9217 91.92 83.9777 91.6213 84.9804 91.024C85.983 90.448 86.9217 89.6053 87.7964 88.496C88.6924 87.3867 89.503 86.032 90.2284 84.432C90.9537 82.832 91.5937 81.0187 92.1484 78.992C91.8924 79.248 91.5724 79.536 91.1884 79.856C90.8257 80.1547 90.4417 80.4427 90.0364 80.72C89.631 80.9973 89.2257 81.2533 88.8204 81.488C88.4364 81.7227 88.1057 81.8933 87.8284 82C87.4657 81.936 87.1244 81.7867 86.8044 81.552C86.5057 81.296 86.239 80.9867 86.0044 80.624C85.7697 80.2613 85.5884 79.856 85.4604 79.408C85.3324 78.9387 85.2684 78.448 85.2684 77.936C85.2684 77.104 85.4177 76.2507 85.7164 75.376C86.0364 74.5013 86.4524 73.648 86.9644 72.816C87.4764 71.9627 88.0737 71.1627 88.7564 70.416C89.4604 69.6693 90.1964 69.0187 90.9644 68.464C91.7537 67.9093 92.543 67.472 93.3324 67.152C94.143 66.8107 94.9324 66.64 95.7004 66.64C96.447 66.64 97.0017 66.8 97.3644 67.12C97.7484 67.4187 98.0257 67.9413 98.1964 68.688C97.9617 68.56 97.663 68.496 97.3004 68.496C96.7884 68.496 96.191 68.6987 95.5084 69.104C94.847 69.5093 94.1644 70.0427 93.4604 70.704C92.7777 71.344 92.095 72.0907 91.4124 72.944C90.7297 73.776 90.1217 74.6293 89.5884 75.504C89.0764 76.3787 88.6497 77.232 88.3084 78.064C87.9884 78.896 87.8284 79.6427 87.8284 80.304C87.8284 80.4533 87.839 80.5493 87.8604 80.592C87.8817 80.6133 87.9137 80.624 87.9564 80.624C88.1484 80.624 88.4044 80.5173 88.7244 80.304C89.0657 80.0907 89.439 79.824 89.8444 79.504C90.271 79.1627 90.7084 78.7787 91.1564 78.352C91.6044 77.904 92.031 77.456 92.4364 77.008C93.3537 75.984 94.1857 74.8427 94.9324 73.584C95.7004 72.304 96.3084 71.0667 96.7564 69.872C97.3324 69.9147 97.8444 70.0107 98.2924 70.16C98.7404 70.3093 99.0497 70.4693 99.2204 70.64C98.495 72.304 97.9084 73.7013 97.4604 74.832C97.0337 75.9627 96.6604 76.9653 96.3404 77.84C95.7644 79.376 95.2204 80.7733 94.7084 82.032C94.2177 83.312 93.7057 84.4853 93.1724 85.552C92.6604 86.64 92.095 87.6427 91.4764 88.56C90.879 89.4987 90.1964 90.3947 89.4284 91.248C89.0657 91.6533 88.6497 92.0053 88.1804 92.304C87.7324 92.624 87.263 92.8907 86.7724 93.104C86.303 93.3173 85.8337 93.4773 85.3644 93.584C84.9164 93.6907 84.5004 93.744 84.1164 93.744C83.6044 93.744 83.0817 93.68 82.5484 93.552C82.015 93.4453 81.5244 93.2853 81.0764 93.072C80.607 92.88 80.2017 92.6453 79.8604 92.368C79.519 92.112 79.2737 91.8347 79.1244 91.536ZM111.451 68.752C111.365 70.0747 111.131 71.216 110.747 72.176C110.363 73.1147 109.808 73.9467 109.083 74.672C108.379 75.376 107.515 76.016 106.491 76.592C105.467 77.168 104.272 77.7227 102.907 78.256C102.907 78.384 102.896 78.5227 102.875 78.672C102.875 78.8 102.875 78.9387 102.875 79.088C102.875 79.3653 102.896 79.6533 102.939 79.952C102.981 80.2507 103.056 80.528 103.163 80.784C103.269 81.04 103.419 81.2533 103.611 81.424C103.803 81.5733 104.048 81.648 104.347 81.648C104.923 81.648 105.488 81.52 106.043 81.264C106.597 81.008 107.12 80.6987 107.611 80.336C108.123 79.952 108.592 79.5467 109.019 79.12C109.467 78.672 109.861 78.2667 110.203 77.904C110.416 78.096 110.597 78.2773 110.747 78.448C109.787 79.728 108.731 80.7947 107.579 81.648C106.448 82.48 105.371 83.0133 104.347 83.248C102.875 83.0773 101.723 82.544 100.891 81.648C100.08 80.7307 99.6746 79.632 99.6746 78.352C99.6746 77.4773 99.792 76.592 100.027 75.696C100.283 74.7787 100.624 73.904 101.051 73.072C101.499 72.2187 102.011 71.4187 102.587 70.672C103.184 69.9253 103.813 69.2747 104.475 68.72C105.157 68.1653 105.851 67.728 106.555 67.408C107.28 67.088 107.995 66.928 108.699 66.928C109.68 67.056 110.597 67.664 111.451 68.752ZM109.243 69.808C108.667 69.8933 108.069 70.128 107.451 70.512C106.832 70.896 106.245 71.408 105.691 72.048C105.157 72.688 104.667 73.4347 104.219 74.288C103.771 75.1413 103.419 76.0587 103.163 77.04C104.869 76.1867 106.288 75.1413 107.419 73.904C108.549 72.6453 109.157 71.28 109.243 69.808Z" fill="#898889"/>
</svg>
